# xmcd
#
# Track frame offsets: 
#        150
#        12115
#        24727
#        34752
#        46352
#        59260
#        72985
#        84510
#        94215
#        107567
#        117787
#        129375
#        140445
#        153702
#        167092
#        178822
#        191147
#        205682
#        219702
#        232925
#
# Disc length: 3460 seconds
#
# Revision: 0
# Processed by: cddbd v1.5.1PL0 Copyright (c) Steve Scherf et al.
# Submitted via: ExactAudioCopy v0.95a5
#
DISCID=180d8214
DTITLE=Howlin' Wolf - His Best, Vol. 2
DYEAR=2000
DGENRE=Blues
TTITLE0=Howlin' Wolf Boogie
TTITLE1=Mr. Highway Man
TTITLE2=All Night Boogie (All Night Long)
TTITLE3=You Gonna Wreck My Life (No Place To Go Alt. Take)
TTITLE4=I'm The Wolf
TTITLE5=Rockin' Daddy
TTITLE6=Who Will Be Next
TTITLE7=The Natchez Burnin'
TTITLE8=Tell Me
TTITLE9=I've Been Abused
TTITLE10=Down In The Bottom
TTITLE11=You'll Be Mine
TTITLE12=Just Like I Treat You
TTITLE13=Tail Dragger
TTITLE14=My Country Sugar Mama
TTITLE15=Louise
TTITLE16=Don't Laugh At Me
TTITLE17=Commit A Crime
TTITLE18=New Crawlin' King Snake
TTITLE19=The Red Rooster (With False Start And Dialogue)
EXTD=
EXTT0=
EXTT1=
EXTT2=
EXTT3=
EXTT4=
EXTT5=
EXTT6=
EXTT7=
EXTT8=
EXTT9=
EXTT10=
EXTT11=
EXTT12=
EXTT13=
EXTT14=
EXTT15=
EXTT16=
EXTT17=
EXTT18=
EXTT19=
PLAYORDER=
